<?xml version="1.0" encoding="UTF-8"?>
<svg width="63px" height="49px" viewBox="0 0 63 49" version="1.1" xmlns="http://www.w3.org/2000/svg" xmlns:xlink="http://www.w3.org/1999/xlink">
    <!-- Generator: Sketch 44.1 (41455) - http://www.bohemiancoding.com/sketch -->
    <title>Stroke 10 Copy</title>
    <desc>Created with Sketch.</desc>
    <defs></defs>
    <g id="Page-1" stroke="none" stroke-width="1" fill="none" fill-rule="evenodd">
        <g id="втб_2" transform="translate(-927.000000, -1934.000000)">
            <g id="Group-13" transform="translate(180.000000, 1916.000000)">
                <g id="Stroke-10-Copy" transform="translate(748.000000, 19.000000)">
                    <path d="M49,22.7069498 L49,8.88030888 C49,4.14414414 45.2447847,0 40.3274475,0 L20.6725525,0 C15.7581061,0 12,3.84813385 12,8.88030888 L12,23 M12,47 L49,47 L12,47 L12,47 Z M45,30.434873 C35.0558229,28.577873 24.9528393,28.523873 15,30.269873 M7.63465991,22 C3.39475252,22 0,24.9069767 0,28.3953488 C0,30.7209302 1.41330246,32.755814 3.67458641,33.9186047 L3.67458641,44.9651163 C3.67458641,46.127907 4.80805498,47 6.22135744,47 L12.4398883,47 C13.8531907,47 14.9838327,46.127907 14.9838327,44.9651163 L14.9838327,28.1046512 C15.2636666,24.9069767 11.8745673,22 7.63465991,22 L7.63465991,22 L7.63465991,22 Z M53.3654508,22 C57.606867,22 61,24.9069767 61,28.3953488 C61,30.7209302 59.5890222,32.755814 57.3269336,33.9186047 L57.3269336,44.9651163 C57.3269336,46.127907 56.1930616,47 54.7820838,47 L48.56134,47 C47.1475346,47 46.0164903,46.127907 46.0164903,44.9651163 L46.0164903,28.1046512 C45.7337292,24.9069767 49.1240346,22 53.3654508,22 L53.3654508,22 L53.3654508,22 Z" id="Stroke-10" stroke="#5E85B1" stroke-width="2" stroke-linecap="round"></path>
                    <polygon id="Star" fill="#FF2141" points="31 17.25 26.297718 19.5676275 27.1957739 14.6588137 23.3915479 11.1823725 28.648859 10.4661863 31 6 33.351141 10.4661863 38.6084521 11.1823725 34.8042261 14.6588137 35.702282 19.5676275"></polygon>
                </g>
            </g>
        </g>
    </g>
</svg>