<?xml version="1.0" encoding="UTF-8"?>
<svg width="162px" height="60px" viewBox="0 0 162 60" version="1.1" xmlns="http://www.w3.org/2000/svg" xmlns:xlink="http://www.w3.org/1999/xlink">
    <!-- Generator: Sketch 44.1 (41455) - http://www.bohemiancoding.com/sketch -->
    <title>vtb24_logo_2</title>
    <desc>Created with Sketch.</desc>
    <defs>
        <polygon id="path-1" points="10.679 7.94 0.766 7.94 0.766 0.306 10.679 0.306"></polygon>
        <polygon id="path-3" points="12.232 7.94 0.687 7.94 0.687 0.325 12.232 0.325"></polygon>
    </defs>
    <g id="Page-1" stroke="none" stroke-width="1" fill="none" fill-rule="evenodd">
        <g id="втб_1" transform="translate(-558.000000, -21.000000)">
            <g id="vtb24_logo_2" transform="translate(558.000000, 21.000000)">
                <path d="M50.852,51.478 L47.86,51.478 L47.86,53.404 L48.863,53.404 C49.408,53.404 50.329,53.404 50.979,54.032 C51.48,54.536 51.565,55.215 51.565,55.624 C51.565,56.022 51.502,56.618 51.052,57.069 C50.455,57.696 49.503,57.738 48.812,57.738 L46.655,57.738 L46.655,50.494 L51.01,50.494 L50.852,51.478 Z M49.911,56.431 C50.194,56.169 50.226,55.802 50.226,55.561 C50.226,55.111 50.067,54.86 49.911,54.703 C49.627,54.419 49.209,54.39 48.884,54.39 L47.86,54.39 L47.86,56.755 L48.884,56.755 C49.429,56.755 49.743,56.587 49.911,56.431 L49.911,56.431 Z" id="Fill-1" fill="#FFFFFF"></path>
                <path d="M54.831,57.875 C53.396,57.875 52.495,56.808 52.495,55.091 C52.495,53.394 53.408,52.306 54.81,52.306 C56.317,52.306 57.175,53.426 57.175,55.102 C57.175,56.817 56.264,57.875 54.831,57.875 M54.81,53.163 C54.088,53.163 53.773,53.708 53.773,55.007 C53.773,56.566 54.171,57.017 54.841,57.017 C55.522,57.017 55.9,56.462 55.9,55.11 C55.9,53.614 55.469,53.163 54.81,53.163" id="Fill-2" fill="#FFFFFF"></path>
                <path d="M62.305,57.739 L61.165,57.739 L61.165,53.3 L59.971,53.3 L59.929,53.875 C59.898,54.2 59.877,54.63 59.834,55.102 C59.804,55.404 59.729,56.073 59.677,56.451 C59.636,56.734 59.552,57.132 59.269,57.415 C58.934,57.718 58.484,57.781 58.171,57.812 L57.888,57.843 L57.658,57.058 L57.888,57.006 C58.054,56.964 58.274,56.859 58.4,56.734 C58.726,56.409 58.713,55.823 58.787,55.164 C58.872,54.462 58.872,54.085 58.924,53.437 L58.986,52.441 L62.305,52.441 L62.305,57.739" id="Fill-3" fill="#FFFFFF"></path>
                <path d="M64.891,54.399 L65.656,54.399 C66.085,54.399 66.796,54.409 67.298,54.911 C67.676,55.3 67.729,55.771 67.729,56.095 C67.729,56.692 67.52,57.048 67.321,57.257 C66.942,57.646 66.389,57.739 65.75,57.739 L63.75,57.739 L63.75,52.536 L64.891,52.315 L64.891,54.399 Z M65.551,56.923 C65.792,56.923 66.097,56.9 66.304,56.692 C66.503,56.493 66.515,56.242 66.515,56.085 C66.515,55.917 66.493,55.645 66.295,55.446 C66.074,55.236 65.761,55.216 65.521,55.216 L64.891,55.216 L64.891,56.923 L65.551,56.923 L65.551,56.923 Z" id="Fill-4" fill="#FFFFFF"></path>
                <polyline id="Fill-5" fill="#FFFFFF" points="69.873 56.881 71.32 56.881 71.32 52.536 72.46 52.315 72.46 56.881 73.905 56.881 73.905 52.536 75.045 52.315 75.045 57.739 68.733 57.739 68.733 52.536 69.873 52.315 69.873 56.881"></polyline>
                <path d="M78.563,57.875 C77.131,57.875 76.227,56.808 76.227,55.091 C76.227,53.394 77.14,52.306 78.543,52.306 C80.049,52.306 80.908,53.426 80.908,55.102 C80.908,56.817 79.997,57.875 78.563,57.875 M78.543,53.163 C77.819,53.163 77.506,53.708 77.506,55.007 C77.506,56.566 77.904,57.017 78.573,57.017 C79.254,57.017 79.631,56.462 79.631,55.11 C79.631,53.614 79.202,53.163 78.543,53.163" id="Fill-6" fill="#FFFFFF"></path>
                <path d="M83.105,55.488 C83.105,56.222 83.378,56.995 84.415,56.995 C84.887,56.995 85.327,56.817 85.734,56.472 L86.185,57.174 C85.629,57.646 85.001,57.875 84.279,57.875 C82.782,57.875 81.84,56.808 81.84,55.091 C81.84,54.158 82.038,53.552 82.499,53.017 C82.929,52.524 83.452,52.306 84.122,52.306 C84.656,52.306 85.126,52.441 85.577,52.85 C86.037,53.268 86.269,53.928 86.269,55.152 L86.269,55.394 L83.105,55.394 L83.105,55.488 Z M84.122,53.163 C83.46,53.163 83.116,53.667 83.116,54.536 L85.075,54.536 C85.075,53.667 84.708,53.163 84.122,53.163 L84.122,53.163 Z" id="Fill-7" fill="#FFFFFF"></path>
                <g id="Group-11" transform="translate(89.000000, 52.000000)">
                    <mask id="mask-2" fill="white">
                        <use xlink:href="#path-1"></use>
                    </mask>
                    <g id="Clip-9"></g>
                    <polyline id="Fill-8" fill="#DC3C37" mask="url(#mask-2)" points="0.766 0.441 4.743 0.441 4.743 5.738 3.604 5.738 3.604 1.3 1.906 1.3 1.906 5.738 0.766 5.738 0.766 0.441"></polyline>
                    <path d="M7.266,0.934 C7.676,0.462 8.23,0.306 8.68,0.306 C9.309,0.306 9.716,0.568 9.967,0.818 C10.323,1.175 10.679,1.833 10.679,3.027 C10.679,4.2 10.344,4.943 9.915,5.362 C9.664,5.604 9.235,5.875 8.554,5.875 C8.294,5.875 7.811,5.823 7.31,5.436 C7.341,5.677 7.341,5.958 7.341,6.157 L7.341,7.708 L6.23,7.99 L6.23,1.813 C6.23,1.101 6.179,0.735 6.126,0.493 L7.183,0.306 C7.234,0.546 7.266,0.755 7.266,0.934 M8.397,4.901 C8.637,4.901 8.825,4.827 8.983,4.682 C9.434,4.252 9.445,3.509 9.445,3.091 C9.445,2.409 9.381,1.845 9.077,1.52 C8.9,1.32 8.7,1.279 8.48,1.279 C7.948,1.279 7.581,1.581 7.341,1.823 L7.341,4.431 C7.621,4.691 7.968,4.901 8.397,4.901" id="Fill-10" fill="#DC3C37" mask="url(#mask-2)"></path>
                </g>
                <path d="M101.878,55.488 C101.878,56.222 102.149,56.995 103.186,56.995 C103.657,56.995 104.097,56.817 104.505,56.472 L104.955,57.174 C104.4,57.646 103.771,57.875 103.05,57.875 C101.554,57.875 100.61,56.808 100.61,55.091 C100.61,54.158 100.809,53.552 101.271,53.017 C101.7,52.524 102.224,52.306 102.893,52.306 C103.428,52.306 103.898,52.441 104.349,52.85 C104.81,53.268 105.038,53.928 105.038,55.152 L105.038,55.394 L101.878,55.394 L101.878,55.488 Z M102.893,53.163 C102.234,53.163 101.888,53.667 101.888,54.536 L103.846,54.536 C103.846,53.667 103.479,53.163 102.893,53.163 L102.893,53.163 Z" id="Fill-12" fill="#DC3C37"></path>
                <path d="M107.331,52.306 L107.331,55.081 C107.331,55.456 107.321,55.906 107.29,56.272 L107.311,56.272 C107.51,55.761 107.698,55.362 107.875,55.038 L109.291,52.515 L110.483,52.306 L110.483,57.739 L109.341,57.739 L109.341,55.331 C109.341,54.817 109.354,54.452 109.395,53.96 L109.373,53.96 C109.216,54.378 109.007,54.829 108.84,55.132 L107.386,57.739 L106.19,57.739 L106.19,52.524 L107.331,52.306" id="Fill-13" fill="#DC3C37"></path>
                <g id="Group-17" transform="translate(111.000000, 52.000000)">
                    <mask id="mask-4" fill="white">
                        <use xlink:href="#path-3"></use>
                    </mask>
                    <g id="Clip-15"></g>
                    <path d="M3.461,3.227 C3.576,3.593 3.649,3.792 3.734,4.199 C3.85,3.749 3.921,3.53 4.004,3.247 L4.873,0.441 L6.276,0.441 L6.812,5.738 L5.732,5.738 L5.47,2.65 C5.46,2.473 5.45,2.295 5.45,1.761 L5.409,1.761 C5.324,2.18 5.229,2.493 5.199,2.577 L4.162,5.738 L3.252,5.738 L2.288,2.671 C2.151,2.253 2.091,1.979 2.048,1.761 L2.005,1.761 L2.005,2.169 C2.005,2.337 1.995,2.515 1.985,2.608 L1.745,5.738 L0.687,5.738 L1.209,0.441 L2.612,0.441 L3.461,3.227" id="Fill-14" fill="#DC3C37" mask="url(#mask-4)"></path>
                    <path d="M10.276,6.095 C9.994,6.901 9.71,7.247 9.553,7.403 C9.219,7.749 8.853,7.875 8.297,8 L7.921,7.257 C8.433,7.122 8.664,6.952 8.8,6.796 C8.926,6.67 9.177,6.367 9.356,5.738 L8.989,5.738 C8.789,4.985 8.653,4.608 8.538,4.241 L7.282,0.526 L8.455,0.325 L9.428,3.552 C9.511,3.833 9.627,4.378 9.71,4.734 L9.731,4.734 C9.848,4.241 9.994,3.728 10.119,3.311 L11,0.441 L12.232,0.441 L10.276,6.095" id="Fill-16" fill="#DC3C37" mask="url(#mask-4)"></path>
                </g>
                <polyline id="Fill-18" fill="#DC3C37" points="125.223 56.881 126.667 56.881 126.667 52.536 127.808 52.315 127.808 56.881 129.254 56.881 129.254 52.536 130.394 52.315 130.394 56.881 131.055 56.881 131.055 59.235 129.985 59.235 129.985 57.739 124.081 57.739 124.081 52.536 125.223 52.315 125.223 56.881"></polyline>
                <path d="M132.97,55.488 C132.97,56.222 133.241,56.995 134.278,56.995 C134.75,56.995 135.189,56.817 135.597,56.472 L136.048,57.174 C135.492,57.646 134.863,57.875 134.143,57.875 C132.646,57.875 131.702,56.808 131.702,55.091 C131.702,54.158 131.901,53.552 132.361,53.017 C132.79,52.524 133.314,52.306 133.985,52.306 C134.519,52.306 134.99,52.441 135.44,52.85 C135.901,53.268 136.131,53.928 136.131,55.152 L136.131,55.394 L132.97,55.394 L132.97,55.488 Z M133.985,53.163 C133.326,53.163 132.98,53.667 132.98,54.536 L134.938,54.536 C134.938,53.667 134.571,53.163 133.985,53.163 L133.985,53.163 Z" id="Fill-19" fill="#DC3C37"></path>
                <path d="M139.282,57.875 C137.826,57.875 137.032,56.87 137.032,55.152 C137.032,53.228 138.183,52.306 139.366,52.306 C139.952,52.306 140.359,52.432 140.83,52.881 L140.255,53.646 C139.952,53.372 139.659,53.236 139.366,53.236 C138.978,53.236 138.708,53.415 138.528,53.771 C138.371,54.095 138.31,54.577 138.31,55.247 C138.31,55.948 138.424,56.431 138.664,56.692 C138.843,56.891 139.084,56.995 139.366,56.995 C139.732,56.995 140.088,56.817 140.434,56.472 L140.979,57.174 C140.485,57.665 139.993,57.875 139.282,57.875" id="Fill-20" fill="#DC3C37"></path>
                <polyline id="Fill-21" fill="#DC3C37" points="142.892 57.739 142.892 53.3 141.47 53.3 141.47 52.441 145.553 52.441 145.405 53.3 144.034 53.3 144.034 57.739 142.892 57.739"></polyline>
                <path d="M149.919,52.86 C150.212,53.153 150.265,53.52 150.265,53.782 C150.265,54.116 150.18,54.357 149.972,54.598 C149.855,54.724 149.688,54.859 149.446,54.933 C149.833,55.007 150.063,55.216 150.138,55.29 C150.397,55.551 150.493,55.844 150.493,56.21 C150.493,56.808 150.242,57.142 150.063,57.31 C149.991,57.383 149.562,57.739 148.714,57.739 L146.347,57.739 L146.347,52.441 L148.545,52.441 C148.912,52.441 149.529,52.474 149.919,52.86 L149.919,52.86 Z M148.232,54.609 C148.431,54.609 148.734,54.598 148.934,54.399 C149.092,54.243 149.122,54.063 149.122,53.907 C149.122,53.751 149.092,53.54 148.924,53.384 C148.746,53.226 148.494,53.217 148.275,53.217 L147.488,53.217 L147.488,54.609 L148.232,54.609 Z M148.327,56.964 C148.578,56.964 148.882,56.923 149.081,56.755 C149.28,56.589 149.29,56.378 149.29,56.2 C149.29,55.99 149.259,55.698 149.018,55.519 C148.818,55.361 148.537,55.361 148.327,55.361 L147.488,55.361 L147.488,56.964 L148.327,56.964 L148.327,56.964 Z" id="Fill-22" fill="#DC3C37"></path>
                <path d="M153.749,57.875 C152.315,57.875 151.415,56.808 151.415,55.091 C151.415,53.394 152.326,52.306 153.729,52.306 C155.237,52.306 156.095,53.426 156.095,55.102 C156.095,56.817 155.183,57.875 153.749,57.875 M153.729,53.163 C153.006,53.163 152.692,53.708 152.692,55.007 C152.692,56.566 153.089,57.017 153.76,57.017 C154.44,57.017 154.818,56.462 154.818,55.11 C154.818,53.614 154.389,53.163 153.729,53.163" id="Fill-23" fill="#DC3C37"></path>
                <path d="M46.811,15.271 L46.811,44.583 L58.622,44.583 C64.117,44.583 67.667,41.288 67.667,36.193 C67.667,33.645 66.851,31.822 65.022,30.28 C64.354,29.715 63.609,29.32 62.836,29.004 C63.433,28.711 64.002,28.365 64.504,27.911 C65.855,26.65 66.566,24.896 66.566,22.826 C66.566,20.689 65.77,18.92 64.141,17.42 C62.152,15.63 59.87,15.271 56.833,15.271 L46.811,15.271 Z M56.181,21.041 C56.674,21.041 57.594,21.041 58.36,21.369 C59.19,21.725 59.706,22.656 59.706,23.807 C59.706,24.588 59.441,25.363 59.016,25.823 C58.354,26.557 57.581,26.615 56.71,26.615 L53.348,26.615 L53.348,21.041 L56.181,21.041 Z M56.993,32.24 C57.848,32.24 58.73,32.328 59.4,32.967 C59.959,33.494 60.317,34.486 60.317,35.496 C60.317,36.342 60.065,37.184 59.627,37.807 C58.902,38.806 58.111,39.001 56.993,39.001 L53.427,39.001 L53.427,32.24 L56.993,32.24 Z M68.013,15.271 L68.013,20.889 C68.013,20.889 75.401,20.904 76.221,20.906 L76.221,44.583 L82.821,44.583 L82.821,20.898 C83.625,20.896 90.012,20.898 90.012,20.898 L91.913,15.271 L68.013,15.271 Z M93.565,15.271 L93.565,44.583 L104.522,44.583 C107.005,44.583 109.336,43.958 110.911,42.868 C112.53,41.763 114.463,39.562 114.463,35.383 C114.463,31.461 112.589,29.355 111.474,28.447 C110.282,27.486 108.067,26.34 104.281,26.34 L100.153,26.34 L100.153,20.906 L111.242,20.906 L113.182,15.271 L93.565,15.271 Z M103.461,31.92 C104.39,31.92 105.269,32.147 105.81,32.531 C106.671,33.132 107.088,34.062 107.088,35.383 C107.088,36.77 106.68,37.439 106.373,37.825 C105.788,38.561 104.902,38.918 103.666,38.918 L100.153,38.918 L100.153,31.92 L103.461,31.92 Z M27.183,15.268 L4.901,15.268 C4.901,15.268 5.575,17.421 6.354,18.525 L26.177,18.525 C26.177,18.525 29.961,21.488 31.77,26.674 L10.935,26.674 C7.339,23.742 4.646,19.778 3.232,15.268 C3.412,14.715 3.61,14.174 3.828,13.64 L27.174,13.64 C28.993,12.375 30.801,10.384 30.801,10.384 L5.462,10.384 C5.798,9.824 6.155,9.283 6.536,8.756 L32.128,8.756 C32.803,7.938 34.16,5.499 34.16,5.499 L9.356,5.499 C9.953,4.924 10.58,4.381 11.231,3.872 L34.922,3.872 C35.57,2.316 36.034,0.614 36.034,0.614 L10.301,0.614 C5.385,4.114 1.676,9.242 0,15.268 C1.662,21.225 5.335,26.394 10.289,29.928 L35.966,29.928 C35.966,29.928 35.514,22.131 27.183,15.268 L27.183,15.268 Z" id="Fill-24" fill="#FFFFFF"></path>
                <path d="M119.139,16.673 C119.138,16.918 119.134,22.33 119.134,22.949 C119.461,22.791 119.942,22.558 119.942,22.558 C120.526,22.209 123.66,20.412 126.489,20.267 C127.658,20.203 128.705,20.553 129.438,21.25 C130.036,21.816 130.365,22.576 130.365,23.389 C130.365,26.08 128.5,27.437 126.246,28.812 C120.714,32.13 117.283,35.59 117.283,42.569 C117.283,42.569 117.29,44.226 117.291,44.583 C117.717,44.583 135.269,44.581 135.692,44.581 L135.692,38.919 L124.294,38.919 C124.877,36.584 126.309,35.172 128.301,33.906 C128.306,33.904 131.163,32.139 131.163,32.139 C134.529,30.08 136.662,26.668 136.729,23.236 C136.729,21.007 136.113,18.912 134.52,17.289 C132.831,15.564 130.364,14.65 127.386,14.65 C124.589,14.65 121.619,15.391 119.139,16.673 M149.002,15.271 C148.876,15.469 137.301,33.615 137.23,33.723 L137.23,38.868 L150.285,38.868 L150.285,44.583 L155.751,44.583 L155.751,38.868 L159.35,38.868 L161.251,33.23 L155.751,33.23 L155.751,27.457 L150.285,27.457 L150.285,33.23 L143.836,33.23 C144.304,32.437 153.665,17.711 155.226,15.271 L149.002,15.271" id="Fill-25" fill="#DC3C37"></path>
            </g>
        </g>
    </g>
</svg>