<?xml version="1.0" encoding="UTF-8"?>
<svg width="38px" height="58px" viewBox="0 0 38 58" version="1.1" xmlns="http://www.w3.org/2000/svg" xmlns:xlink="http://www.w3.org/1999/xlink">
    <!-- Generator: Sketch 44.1 (41455) - http://www.bohemiancoding.com/sketch -->
    <title>Imported Layers</title>
    <desc>Created with Sketch.</desc>
    <defs></defs>
    <g id="Page-1" stroke="none" stroke-width="1" fill="none" fill-rule="evenodd">
        <g id="втб_2" transform="translate(-296.000000, -1490.000000)">
            <g id="Group-7" transform="translate(180.000000, 1473.000000)">
                <g id="Imported-Layers" transform="translate(117.000000, 18.000000)">
                    <path d="M11.5005407,4.22632452 C11.7700981,0.910401212 14.6317378,-0.454978974 20.0854601,0.132592041 C25.0602367,0.722571133 27.5993704,2.03256553 27.7076747,4.06739138 C27.7076747,4.49362117 27.6547259,4.92225904 27.5464216,5.35089691 L26.4248706,13.3770207 C28.8292257,13.5913396 28.5620751,15.6791432 25.6210122,19.6380233 L25.219083,21.6463603 C25.1661342,23.3031179 24.2299039,24.6155203 22.4127987,25.5787515 C22.4127987,25.6317292 22.3863243,25.6582181 22.3309688,25.6582181 L22.3309688,29.9927584 L33.1613969,34.8089142 C35.2480594,35.8251231 36.1842897,37.4313111 35.9700879,39.6250701 L35.9700879,49.4981896 C31.0506668,53.7267744 25.2744385,55.8940446 18.641403,56 L17.519852,56 C10.8868165,55.8940446 5.05763941,53.7267744 0.0299140136,49.4981896 L0.0299140136,39.6250701 C-0.184287786,37.4313111 0.751942553,35.8251231 2.83619827,34.8089142 L13.5077801,29.9927584 L13.5077801,25.5787515 C11.7965724,24.6155203 10.8603421,23.3031179 10.6990891,21.6463603 L10.3789897,19.6380233 C7.49087558,15.6791432 7.22372502,13.5913396 9.57753806,13.3770207 L8.37415716,7.43870048 C7.89039804,5.61819356 8.6677821,4.54900696 10.6990891,4.22632452 L11.5005407,4.22632452 C15.993965,7.27735926 20.1384088,8.82816144 23.9362789,8.88354724 M23,26.066 C22.2364975,26.512 21.2274959,26.866 19.9729951,27.134 C19.101473,27.178 18.200491,27.178 17.2725041,27.134 C16.0180033,26.866 14.9279869,26.488 14,26" id="Stroke-1" stroke="#5E85B1" stroke-width="2" stroke-linecap="round" stroke-linejoin="round"></path>
                    <path d="M18,22 C25.1609224,20.7080537 27.0974461,19.214094 28,15" id="Stroke-2" stroke="#FF2141" stroke-width="2" stroke-linecap="round" stroke-linejoin="round"></path>
                    <path d="M18.5727069,20 L17.4295302,20 C16.6442953,20 16,20.6742365 16,21.4988254 C16,22.3257635 16.6442953,23 17.4295302,23 L18.5727069,23 C19.3579418,23 20,22.3257635 20,21.4988254 C20,20.6742365 19.3579418,20 18.5727069,20" id="Fill-3" fill="#FF2141"></path>
                </g>
            </g>
        </g>
    </g>
</svg>